<svg width="467" height="467" viewBox="0 0 467 467" fill="none" xmlns="http://www.w3.org/2000/svg">
<mask id="mask0_1_27" style="mask-type:luminance" maskUnits="userSpaceOnUse" x="0" y="0" width="467" height="467">
<path d="M466.667 0H0V466.667H466.667V0Z" fill="white"/>
</mask>
<g mask="url(#mask0_1_27)">
<mask id="mask1_1_27" style="mask-type:luminance" maskUnits="userSpaceOnUse" x="0" y="0" width="467" height="467">
<path d="M0 0H466.667V466.667H0V0Z" fill="white"/>
</mask>
<g mask="url(#mask1_1_27)">
<path d="M317.28 120.184V150.925C340.639 151.951 357.368 175.492 347.312 197.563C335.797 222.836 304.807 216.707 282.315 216.707V201.452C266.883 211.831 251.709 222.037 236.393 232.337C251.703 242.544 266.865 252.651 282.26 262.913V247.651C303.167 247.651 326.168 250.799 345.473 241.063C362.643 232.405 375.92 215.961 379.612 196.981C387.759 155.092 356.519 124.197 317.28 120.184Z" fill="#57AE89"/>
<path d="M149.387 344.485V313.744C126.028 312.719 109.299 289.177 119.355 267.107C130.869 241.833 161.86 247.963 184.352 247.963V263.217C199.784 252.839 214.957 242.632 230.273 232.332C214.964 222.125 199.801 212.019 184.407 201.756V217.019C163.5 217.019 140.499 213.871 121.193 223.607C104.024 232.264 90.7467 248.708 87.0547 267.688C78.908 309.577 110.148 340.472 149.387 344.485Z" fill="#57AE89"/>
</g>
<path d="M161.389 163.283C161.389 164.27 160.928 164.764 160.004 164.764H143.089C142.166 164.764 141.704 164.207 141.704 163.092C141.704 159.874 141.824 155.048 142.063 148.615C142.302 142.18 142.421 137.354 142.421 134.137C142.421 133.213 142.278 132.719 141.991 132.656C141.64 132.847 139.506 137.768 135.588 147.42C133.295 153.089 131.001 158.743 128.708 164.381C128.39 165.114 127.992 165.544 127.513 165.672C127.354 165.704 126.717 165.72 125.603 165.72C123.946 165.72 122.958 165.401 122.64 164.764C120.92 161.26 118.658 156.164 115.855 149.475C112.861 142.403 110.616 137.29 109.119 134.137C109.055 133.977 108.911 133.802 108.688 133.611C108.465 133.898 108.353 134.36 108.353 134.997C108.353 138.118 108.433 142.8 108.593 149.044C108.752 155.288 108.832 159.97 108.832 163.092C108.832 164.207 108.386 164.764 107.493 164.764H91.5347C90.8982 164.764 90.508 164.66 90.364 164.453C90.2209 164.246 90.1493 163.888 90.1493 163.379C90.1493 159.907 90.3164 154.691 90.6507 147.731C90.9858 140.771 91.1533 135.555 91.1533 132.083C91.1533 128.388 90.9938 121.459 90.6747 111.297C90.6435 108.654 90.5004 104.72 90.2453 99.496L90.1973 98.684C90.1653 98.0467 90.8342 97.728 92.204 97.728C93.956 97.728 96.584 97.6724 100.088 97.5613C103.592 97.4493 106.22 97.3933 107.972 97.3933C108.322 97.3933 108.816 98.0622 109.453 99.4L123.404 130.028C124.392 132.098 125.22 133.133 125.889 133.133C126.24 133.133 126.988 131.939 128.135 129.549C131.352 122.86 136.114 112.779 142.421 99.3053C142.963 98.0627 143.552 97.4413 144.189 97.4413C145.113 97.4413 146.506 97.4893 148.369 97.5853C150.233 97.6804 151.643 97.728 152.599 97.728C153.395 97.728 154.613 97.6484 156.253 97.4893C157.894 97.3302 159.112 97.2507 159.908 97.2507C160.864 97.2507 161.341 97.6329 161.341 98.3973C161.341 102.156 161.206 107.77 160.936 115.24C160.665 122.709 160.529 128.324 160.529 132.083C160.529 135.555 160.673 140.763 160.96 147.707C161.246 154.651 161.389 159.843 161.389 163.283Z" fill="#57AE89"/>
<path d="M213.709 138.819C213.709 142.036 212.674 143.868 210.603 144.313C210.252 144.377 206.956 144.728 200.713 145.365C196.954 145.78 191.348 146.273 183.895 146.847C184.34 148.917 185.694 150.493 187.956 151.576C189.803 152.468 191.905 152.915 194.263 152.915C197.097 152.915 199.948 152.15 202.815 150.621C204.025 149.857 205.236 149.092 206.447 148.328C207.115 148.646 208.238 150.271 209.815 153.201C211.392 156.132 212.18 157.995 212.18 158.791C212.18 159.014 211.941 159.38 211.463 159.891C207.577 164.063 201.541 166.149 193.355 166.149C185.773 166.149 179.657 163.936 175.007 159.508C170.229 155.016 167.84 149.012 167.84 141.495C167.84 134.168 169.974 128.164 174.243 123.481C178.638 118.64 184.468 116.219 191.731 116.219C197.846 116.219 203.038 118.448 207.307 122.908C211.575 127.368 213.709 132.671 213.709 138.819ZM196.985 135.904C196.985 133.93 196.285 132.194 194.884 130.696C193.482 129.199 191.81 128.451 189.867 128.451C187.86 128.451 186.203 129.295 184.897 130.983C183.687 132.544 183.081 134.375 183.081 136.477C183.081 137.338 183.528 137.768 184.42 137.768C186.777 137.768 190.44 137.402 195.409 136.669C196.46 136.51 196.985 136.255 196.985 135.904Z" fill="#57AE89"/>
<path d="M262.731 138.819C262.731 142.036 261.696 143.868 259.625 144.313C259.275 144.377 255.978 144.728 249.735 145.365C245.976 145.78 240.37 146.273 232.916 146.847C233.362 148.917 234.716 150.493 236.977 151.576C238.825 152.468 240.928 152.915 243.285 152.915C246.12 152.915 248.971 152.15 251.837 150.621C253.048 149.857 254.259 149.092 255.469 148.328C256.138 148.646 257.26 150.271 258.837 153.201C260.414 156.132 261.203 157.995 261.203 158.791C261.203 159.014 260.964 159.38 260.485 159.891C256.599 164.063 250.563 166.149 242.377 166.149C234.796 166.149 228.68 163.936 224.029 159.508C219.252 155.016 216.863 149.012 216.863 141.495C216.863 134.168 218.997 128.164 223.265 123.481C227.661 118.64 233.49 116.219 240.752 116.219C246.868 116.219 252.061 118.448 256.329 122.908C260.597 127.368 262.731 132.671 262.731 138.819ZM246.008 135.904C246.008 133.93 245.307 132.194 243.905 130.696C242.504 129.199 240.832 128.451 238.889 128.451C236.882 128.451 235.226 129.295 233.92 130.983C232.709 132.544 232.104 134.375 232.104 136.477C232.104 137.338 232.55 137.768 233.443 137.768C235.799 137.768 239.462 137.402 244.432 136.669C245.483 136.51 246.008 136.255 246.008 135.904Z" fill="#57AE89"/>
<path d="M299.952 150.764C299.952 151.72 299.832 153.169 299.593 155.112C299.354 157.055 299.235 158.48 299.235 159.388C299.235 160.296 299.139 160.878 298.948 161.132C298.757 161.387 298.232 161.754 297.372 162.232C293.263 164.493 288.708 165.624 283.707 165.624C274.501 165.624 269.899 162.104 269.899 155.064C269.899 152.962 269.978 149.8 270.137 145.58C270.296 141.36 270.376 138.198 270.376 136.096C270.376 134.694 269.564 133.993 267.939 133.993C267.812 133.993 267.605 133.993 267.319 133.993C267.032 134.025 266.824 134.041 266.697 134.041C265.487 134.041 264.881 133.611 264.881 132.751C264.881 132.241 264.921 131.461 265.001 130.409C265.08 129.359 265.12 128.578 265.12 128.068C265.12 127.4 265.08 126.38 265.001 125.011C264.921 123.641 264.881 122.622 264.881 121.953C264.881 121.316 265.9 120.965 267.939 120.901C269.086 120.869 269.708 120.551 269.803 119.947C269.994 118.736 270.057 116.824 269.993 114.212C269.866 110.104 269.803 108.145 269.803 108.336C269.803 104.641 270.153 102.793 270.853 102.793C271.714 102.793 272.94 102.984 274.533 103.367C276.348 103.781 277.607 104.02 278.308 104.083C279.932 104.306 282.384 104.608 285.665 104.991C286.462 105.055 286.86 105.325 286.86 105.803C286.86 107.077 286.756 109.004 286.549 111.584C286.342 114.164 286.239 116.108 286.239 117.413C286.239 118.974 286.701 119.755 287.625 119.755C288.74 119.755 290.428 119.707 292.689 119.612C294.951 119.516 296.655 119.468 297.801 119.468C298.503 119.468 298.853 119.707 298.853 120.185C298.853 120.918 298.774 122.016 298.615 123.481C298.455 124.947 298.375 126.046 298.375 126.779C298.375 127.543 298.391 128.658 298.423 130.123C298.455 131.588 298.471 132.704 298.471 133.468C298.471 134.136 298.009 134.471 297.085 134.471C296.448 134.471 295.381 134.447 293.884 134.4C292.387 134.352 291.32 134.328 290.683 134.328H287.099C286.621 134.328 286.383 135.029 286.383 136.431C286.383 137.195 286.383 138.326 286.383 139.823C286.415 141.352 286.431 142.482 286.431 143.215C286.431 145.89 286.733 147.738 287.339 148.757C288.198 150.127 289.886 150.812 292.403 150.812C293.199 150.812 294.338 150.629 295.819 150.263C297.3 149.896 298.344 149.713 298.948 149.713C299.617 149.713 299.952 150.064 299.952 150.764Z" fill="#57AE89"/>
<path d="M220.284 345.411C220.284 346.125 219.95 346.483 219.281 346.483H207.041C206.373 346.483 206.039 346.08 206.039 345.273C206.039 342.945 206.125 339.453 206.299 334.797C206.471 330.141 206.557 326.649 206.557 324.321C206.557 323.653 206.454 323.296 206.247 323.249C205.993 323.388 204.449 326.949 201.613 333.933C199.954 338.036 198.294 342.127 196.635 346.207C196.404 346.736 196.116 347.048 195.771 347.14C195.655 347.163 195.194 347.175 194.388 347.175C193.189 347.175 192.474 346.944 192.244 346.483C191 343.948 189.363 340.26 187.335 335.42C185.168 330.303 183.544 326.603 182.46 324.321C182.414 324.206 182.31 324.079 182.149 323.941C181.988 324.148 181.907 324.483 181.907 324.944C181.907 327.203 181.964 330.591 182.08 335.108C182.195 339.626 182.252 343.015 182.252 345.273C182.252 346.08 181.929 346.483 181.284 346.483H169.737C169.276 346.483 168.993 346.408 168.889 346.259C168.786 346.108 168.735 345.849 168.735 345.48C168.735 342.968 168.856 339.194 169.097 334.157C169.339 329.121 169.46 325.347 169.46 322.835C169.46 320.161 169.345 315.148 169.115 307.795C169.092 305.882 168.988 303.036 168.803 299.256L168.769 298.668C168.746 298.207 169.23 297.976 170.221 297.976C171.489 297.976 173.39 297.936 175.925 297.855C178.46 297.775 180.362 297.735 181.631 297.735C181.884 297.735 182.241 298.219 182.701 299.187L192.797 321.348C193.512 322.846 194.111 323.595 194.595 323.595C194.849 323.595 195.391 322.731 196.22 321.003C198.548 316.162 201.994 308.867 206.557 299.117C206.949 298.219 207.376 297.769 207.837 297.769C208.506 297.769 209.514 297.804 210.863 297.872C212.21 297.941 213.23 297.976 213.921 297.976C214.498 297.976 215.38 297.919 216.567 297.804C217.753 297.688 218.635 297.631 219.212 297.631C219.904 297.631 220.249 297.907 220.249 298.46C220.249 301.18 220.151 305.243 219.955 310.648C219.759 316.052 219.661 320.115 219.661 322.835C219.661 325.347 219.765 329.115 219.972 334.14C220.18 339.165 220.284 342.922 220.284 345.411Z" fill="#57AE89"/>
<path d="M240.163 304.925C240.163 308.936 237.904 310.941 233.387 310.941C231.451 310.941 229.849 310.434 228.581 309.42C227.198 308.313 226.507 306.815 226.507 304.925C226.507 303.128 227.221 301.653 228.651 300.5C229.964 299.44 231.543 298.909 233.387 298.909C235.185 298.909 236.741 299.451 238.055 300.535C239.46 301.688 240.163 303.151 240.163 304.925ZM239.264 330.613C239.264 332.296 239.299 334.803 239.368 338.133C239.437 341.464 239.472 343.959 239.472 345.619C239.472 346.103 239.184 346.391 238.608 346.483C237.824 346.621 236.06 346.691 233.317 346.691C230.552 346.691 228.777 346.621 227.993 346.483C227.487 346.391 227.176 346.241 227.06 346.033C227.014 345.941 226.991 345.595 226.991 344.996C226.991 343.406 227.025 341.015 227.095 337.823C227.164 334.63 227.199 332.227 227.199 330.613C227.199 324.068 226.945 318.859 226.437 314.987C226.391 314.618 226.368 314.376 226.368 314.26C226.368 313.8 226.679 313.569 227.301 313.569C227.947 313.569 228.932 313.638 230.257 313.776C231.583 313.915 232.58 313.984 233.248 313.984C233.916 313.984 234.919 313.926 236.256 313.811C237.593 313.696 238.596 313.639 239.264 313.639C239.818 313.639 240.095 313.869 240.095 314.329C240.095 314.422 240.072 314.641 240.025 314.987C239.518 319.481 239.264 324.69 239.264 330.613Z" fill="#57AE89"/>
<path d="M282.585 297.423C282.585 296.916 282.493 297.677 282.308 299.705C282.055 302.264 281.859 305.536 281.721 309.524C281.536 314.041 281.444 319.181 281.444 324.944C281.444 334.463 281.709 341.24 282.24 345.273C282.285 345.711 282.308 345.987 282.308 346.103C282.308 346.356 282.135 346.506 281.789 346.552C280.96 346.668 277.906 346.725 272.628 346.725C271.384 346.725 270.669 346.483 270.484 345.999C270.438 345.123 270.392 344.248 270.347 343.372C270.324 343.187 270.231 343.003 270.069 342.819C269.931 342.887 269.758 343.025 269.551 343.233C267.062 345.676 263.95 346.897 260.216 346.897C255.353 346.897 251.458 345.192 248.531 341.781C245.741 338.532 244.347 334.429 244.347 329.473C244.347 324.448 245.718 320.311 248.461 317.061C251.365 313.604 255.284 311.875 260.216 311.875C263.696 311.875 266.404 312.981 268.341 315.193C268.664 315.562 268.894 315.747 269.032 315.747C269.24 315.747 269.344 315.447 269.344 314.848C269.344 313.074 269.298 310.423 269.205 306.896C269.113 303.37 269.067 300.731 269.067 298.979C269.067 298.31 269.251 297.93 269.62 297.837C271.096 297.769 273.124 297.631 275.705 297.423C280.315 296.847 282.355 296.559 281.824 296.559C282.332 296.559 282.585 296.847 282.585 297.423ZM269.551 329.196C269.551 327.376 268.917 325.78 267.649 324.408C266.382 323.036 264.849 322.351 263.051 322.351C261.161 322.351 259.657 323.036 258.539 324.408C257.421 325.78 256.863 327.422 256.863 329.335C256.863 331.201 257.427 332.78 258.556 334.071C259.709 335.454 261.207 336.145 263.051 336.145C264.895 336.145 266.44 335.454 267.684 334.071C268.928 332.688 269.551 331.064 269.551 329.196Z" fill="#57AE89"/>
<path d="M324.351 297.423C324.351 296.916 324.258 297.677 324.073 299.705C323.82 302.264 323.624 305.536 323.485 309.524C323.301 314.041 323.209 319.181 323.209 324.944C323.209 334.463 323.474 341.24 324.004 345.273C324.05 345.711 324.073 345.987 324.073 346.103C324.073 346.356 323.9 346.506 323.555 346.552C322.725 346.668 319.672 346.725 314.393 346.725C313.148 346.725 312.433 346.483 312.249 345.999C312.203 345.123 312.157 344.248 312.111 343.372C312.088 343.187 311.996 343.003 311.835 342.819C311.696 342.887 311.523 343.025 311.316 343.233C308.826 345.676 305.715 346.897 301.981 346.897C297.117 346.897 293.222 345.192 290.295 341.781C287.506 338.532 286.112 334.429 286.112 329.473C286.112 324.448 287.483 320.311 290.225 317.061C293.13 313.604 297.049 311.875 301.981 311.875C305.461 311.875 308.169 312.981 310.105 315.193C310.428 315.562 310.659 315.747 310.797 315.747C311.004 315.747 311.108 315.447 311.108 314.848C311.108 313.074 311.062 310.423 310.971 306.896C310.878 303.37 310.832 300.731 310.832 298.979C310.832 298.31 311.016 297.93 311.385 297.837C312.86 297.769 314.888 297.631 317.469 297.423C322.079 296.847 324.119 296.559 323.589 296.559C324.097 296.559 324.351 296.847 324.351 297.423ZM311.316 329.196C311.316 327.376 310.682 325.78 309.415 324.408C308.147 323.036 306.614 322.351 304.816 322.351C302.926 322.351 301.422 323.036 300.304 324.408C299.186 325.78 298.627 327.422 298.627 329.335C298.627 331.201 299.192 332.78 300.321 334.071C301.474 335.454 302.972 336.145 304.816 336.145C306.66 336.145 308.204 335.454 309.449 334.071C310.694 332.688 311.316 331.064 311.316 329.196Z" fill="#57AE89"/>
<path d="M342.052 325.669C342.052 331.962 342.075 336.791 342.121 340.156C342.121 340.686 342.156 341.596 342.224 342.888C342.293 344.063 342.328 344.973 342.328 345.619C342.328 346.103 342.04 346.391 341.464 346.483C340.427 346.668 338.56 346.76 335.863 346.76C333.097 346.76 331.334 346.668 330.573 346.483C330.066 346.368 329.778 346.057 329.709 345.549C329.709 345.48 329.709 344.984 329.709 344.063C329.709 342.011 329.732 338.94 329.779 334.849C329.824 330.758 329.847 327.698 329.847 325.669C329.847 315.989 329.858 311.576 329.881 312.428C329.813 307.334 329.525 302.943 329.017 299.256C328.971 299.002 328.948 298.806 328.948 298.668C328.948 298.16 329.248 297.907 329.847 297.907H342.191C342.767 297.907 343.032 298.149 342.985 298.633L342.951 299.256C342.352 309.212 342.052 318.017 342.052 325.669Z" fill="#57AE89"/>
<path d="M380.048 327.709C380.048 330.037 379.299 331.363 377.801 331.685C377.547 331.732 375.161 331.985 370.644 332.447C367.924 332.746 363.868 333.103 358.475 333.517C358.797 335.016 359.777 336.157 361.413 336.941C362.75 337.587 364.272 337.909 365.977 337.909C368.028 337.909 370.091 337.356 372.165 336.249C373.041 335.696 373.917 335.143 374.793 334.589C375.277 334.82 376.089 335.996 377.231 338.116C378.371 340.237 378.941 341.585 378.941 342.161C378.941 342.323 378.768 342.588 378.423 342.956C375.611 345.976 371.244 347.485 365.32 347.485C359.834 347.485 355.408 345.884 352.044 342.68C348.586 339.43 346.857 335.085 346.857 329.645C346.857 324.344 348.402 320 351.491 316.612C354.671 313.108 358.889 311.356 364.144 311.356C368.57 311.356 372.327 312.969 375.415 316.196C378.504 319.424 380.048 323.261 380.048 327.709ZM367.948 325.6C367.948 324.172 367.441 322.916 366.427 321.832C365.412 320.748 364.202 320.207 362.796 320.207C361.344 320.207 360.145 320.818 359.2 322.04C358.324 323.169 357.887 324.494 357.887 326.016C357.887 326.638 358.209 326.949 358.855 326.949C360.56 326.949 363.211 326.684 366.807 326.153C367.568 326.039 367.948 325.854 367.948 325.6Z" fill="#57AE89"/>
<path d="M215.853 205.815C216.508 196.685 216.836 189.659 216.836 184.736L216.819 182.536C218.81 182.559 220.141 182.571 220.813 182.571C221.12 182.571 222.343 182.559 224.483 182.536C224.277 185.094 224.112 187.516 223.985 189.801C223.826 192.984 223.712 195.96 223.644 198.728C223.576 201.497 223.541 203.859 223.541 205.815L220.047 205.78C219.365 205.78 217.967 205.792 215.853 205.815Z" fill="#9377B4"/>
<path d="M227.74 205.815L228.08 202.233L228.745 190.091L228.933 185.196V182.536C230.698 182.559 232.258 182.571 233.613 182.571C234.581 182.571 235.942 182.559 237.695 182.536L244.976 195.775L245.979 197.72C246.108 195.809 246.239 193.13 246.372 189.684C246.506 186.238 246.573 183.855 246.573 182.536C247.971 182.559 249.089 182.571 249.929 182.571C250.316 182.571 251.429 182.559 253.269 182.536L252.86 187.619L252.092 201.739L251.989 205.815C250.51 205.792 249.128 205.78 247.843 205.78C246.773 205.78 245.294 205.792 243.405 205.815C242.815 204.7 242.378 203.892 242.095 203.392L239.233 198.529C238.29 196.937 237.421 195.413 236.627 193.957C236.105 193.036 235.566 192.024 235.009 190.92L234.643 199.007L234.468 205.815C233.06 205.792 231.987 205.78 231.248 205.78C230.624 205.78 229.455 205.792 227.74 205.815Z" fill="#9377B4"/>
<path d="M204.065 281.011C204.63 275.484 204.968 269.402 205.081 262.763L197.823 262.951L197.908 261.057C197.954 260.046 197.988 258.937 198.011 257.732C201.238 257.755 205 257.767 209.297 257.767L213.508 257.749H217.6L219.816 257.732L219.713 259.403C219.668 260.298 219.637 261.038 219.62 261.624C219.603 262.21 219.595 262.652 219.595 262.951C217.164 262.825 215.159 262.763 213.58 262.763H212.387C212.215 264.772 212.084 266.627 211.992 268.329C211.867 270.768 211.769 273.137 211.7 275.436C211.632 277.734 211.597 279.592 211.597 281.011C209.734 280.988 208.53 280.976 207.984 280.976C207.496 280.976 206.19 280.988 204.065 281.011Z" fill="#9377B4"/>
<path d="M221.119 281.011L221.779 271.699L222.083 264.912L222.168 261.893C222.191 261.018 222.203 260.176 222.203 259.369L222.185 257.732C223.972 257.754 225.309 257.765 226.197 257.765C226.892 257.765 228.098 257.754 229.816 257.732C229.547 260.995 229.373 263.877 229.295 266.377H238.577C238.633 265.444 238.687 264.183 238.739 262.593C238.789 261.004 238.815 259.919 238.815 259.337C238.815 259.03 238.803 258.495 238.78 257.732L242.816 257.765C243.236 257.765 244.428 257.754 246.392 257.732C245.986 263.576 245.727 267.921 245.615 270.769C245.502 273.617 245.445 277.031 245.445 281.011L241.724 280.976C241.166 280.976 239.834 280.988 237.729 281.011C238.014 278.304 238.207 275.155 238.309 271.563H229.019L228.733 281.011L224.772 280.976C224.272 280.976 223.054 280.988 221.119 281.011Z" fill="#9377B4"/>
<path d="M252.037 280.993L249.616 281.011C249.9 278.077 250.108 275.621 250.24 273.643C250.371 271.665 250.502 269.036 250.633 265.756C250.764 262.476 250.829 260.301 250.829 259.232L250.813 257.732C253.496 257.754 256.741 257.765 260.548 257.765C264.061 257.765 267.159 257.754 269.841 257.732L269.807 258.292C269.795 258.428 269.767 258.921 269.721 259.772L269.62 261.624C269.597 262.02 269.585 262.423 269.585 262.831C267.391 262.74 265.549 262.695 264.06 262.695C262.423 262.695 261.317 262.697 260.743 262.703C260.168 262.709 259.273 262.735 258.057 262.78L257.849 266.703C259.192 266.736 260.756 266.753 262.541 266.753C263.178 266.753 264.872 266.713 267.624 266.633C267.51 268.089 267.402 269.823 267.3 271.835C265.335 271.812 263.824 271.801 262.767 271.801C261.199 271.801 259.443 271.841 257.5 271.92L257.297 276.064H259.257C259.837 276.064 261.036 276.047 262.853 276.013L266.381 275.928C266.904 275.916 267.779 275.871 269.005 275.792C268.869 277.475 268.756 279.214 268.664 281.011C265.891 280.988 262.85 280.976 259.541 280.976L252.037 280.993Z" fill="#9377B4"/>
</g>
</svg>
