<svg width="34" height="32" viewBox="0 0 34 32" fill="none" xmlns="http://www.w3.org/2000/svg">
<path d="M33.9919 27.6316C34.0452 28.0452 33.8731 28.278 33.4799 28.3262L26.2425 29.2296C25.8452 29.2778 25.6199 29.069 25.5585 28.6033C25.3824 27.2542 25.1735 25.2226 24.9236 22.5124C24.6738 19.8023 24.4649 17.7706 24.2888 16.4216C24.2396 16.0361 24.1495 15.8354 24.0225 15.8233C23.8833 15.9237 23.2361 18.0999 22.0852 22.3598C21.4134 24.8612 20.7376 27.3546 20.0659 29.8439C19.9676 30.1691 19.8242 30.3699 19.6235 30.4502C19.558 30.4703 19.2836 30.5144 18.8084 30.5706C18.0999 30.659 17.6616 30.5787 17.4896 30.3297C16.5639 28.9526 15.3187 26.933 13.7541 24.279C12.0871 21.4725 10.846 19.4489 10.035 18.2043C9.99819 18.14 9.92855 18.0758 9.82206 18.0075C9.74014 18.14 9.71966 18.3408 9.75243 18.6058C9.92446 19.9147 10.2112 21.874 10.6208 24.4838C11.0303 27.0936 11.3171 29.053 11.4891 30.3659C11.5505 30.8356 11.3908 31.0926 11.0058 31.1408L4.17792 31.992C3.9035 32.0241 3.73147 32.004 3.66184 31.9237C3.58811 31.8434 3.53896 31.6989 3.51029 31.4861C3.32188 30.0286 3.10889 27.8324 2.87133 24.8934C2.63377 21.9543 2.42488 19.7581 2.23237 18.3006C2.03167 16.7508 1.58522 13.8519 0.897113 9.60803C0.741469 8.49988 0.462948 6.85772 0.0697425 4.68156L0.00420826 4.34429C-0.0449424 4.0793 0.225386 3.91067 0.811099 3.83839C1.56065 3.74605 2.68292 3.58143 4.17383 3.34856C5.66883 3.11568 6.78701 2.95107 7.53655 2.85872C7.6881 2.83865 7.93386 3.09561 8.28201 3.62158L15.9208 15.723C16.4574 16.538 16.867 16.9275 17.1537 16.8913C17.3053 16.8713 17.5592 16.3333 17.9196 15.2693C18.9313 12.2901 20.4222 7.80929 22.3842 1.81882C22.548 1.26876 22.7651 0.975659 23.0395 0.943539C23.4327 0.895358 24.0348 0.839147 24.8376 0.778922C25.6404 0.718696 26.2466 0.6665 26.6562 0.614304C26.9961 0.570139 27.5122 0.473777 28.2085 0.31719C28.9048 0.160603 29.4209 0.0642414 29.7609 0.0200758C30.1705 -0.03212 30.3957 0.104392 30.4367 0.425597C30.6415 2.00351 30.8872 4.36437 31.1821 7.51217C31.4729 10.66 31.7228 13.0208 31.9276 14.5987C32.116 16.0562 32.4601 18.2324 32.9639 21.1312C33.4636 24.0301 33.8076 26.1982 33.996 27.6437L33.9919 27.6316Z" fill="white"/>
</svg>
